# xmcd
#
# Track frame offsets: 
#        150
#        23985
#        49953
#        69603
#        86815
#        111995
#        134205
#        160820
#        188560
#        209950
#
# Disc length: 3137 seconds
#
# Revision: 0
# Processed by: cddbd v1.5.2PL0 Copyright (c) Steve Scherf et al.
# Submitted via: ExactAudioCopy v1.0b3
#
DISCID=9e0c3f0a
DTITLE=Mong Thi, Truc Quyen - Mot Lan Lo Buoc
DYEAR=1998
DGENRE=
TTITLE0=Mong Thi - Chuyen ngay xua
TTITLE1=Truc Quyen - Nguoi em sau mong
TTITLE2=Mong Thi - Lang le phu sa
TTITLE3=Truc Quyen - Tinh trong nhu da
TTITLE4=Mong Thi - Mot lan lo buoc
TTITLE5=Truc Quyen - Ngay da dom bong
TTITLE6=Mong Thi - Chuyen tinh sau rieng
TTITLE7=Truc Quyen - Mua sau rieng
TTITLE8=Mong Thi - Vung la me bay
TTITLE9=Truc Quyen - Neu anh dung hen
EXTD=
EXTT0=
EXTT1=
EXTT2=
EXTT3=
EXTT4=
EXTT5=
EXTT6=
EXTT7=
EXTT8=
EXTT9=
PLAYORDER=
